
<svg xmlns="http://www.w3.org/2000/svg" viewBox="0 0 98.84 73.36"><defs><style>.cls-1{fill:#2a9f2a;}</style></defs><title>quote</title><g id="Layer_2" data-name="Layer 2"><g id="Layer_6" data-name="Layer 6"><path class="cls-1" d="M93.24,67.9q5.6-5.46,5.6-14.42A16.4,16.4,0,0,0,93.1,40.6,22.82,22.82,0,0,0,79.24,35q1.11-17.91,15.4-30.8L86.52,0a58.69,58.69,0,0,0-20,20.58A54.78,54.78,0,0,0,58.8,49q0,11.76,6.16,18.06a20,20,0,0,0,14.84,6.3A18.59,18.59,0,0,0,93.24,67.9m-58.66,0Q40,62.44,40,53.48a16.58,16.58,0,0,0-5.6-12.88,22.55,22.55,0,0,0-14-5.6A38.79,38.79,0,0,1,26,17.08,55.25,55.25,0,0,1,36.12,4.2L28,0A59.85,59.85,0,0,0,7.84,20.58,54.07,54.07,0,0,0,0,49Q0,60.76,6.16,67.06a20.3,20.3,0,0,0,15.12,6.3,18.11,18.11,0,0,0,13.3-5.46"/></g></g></svg>